#define dropbox_busy_width 10
#define dropbox_busy_height 10
static unsigned char dropbox_busy_bits[] = {
   0x84, 0x00, 0xce, 0x01, 0xff, 0x03, 0xce, 0x01, 0x86, 0x01, 0xcf, 0x03,
   0xfe, 0x01, 0xfc, 0x00, 0x78, 0x00, 0x30, 0x00 };
