#define ac_width 8
#define ac_height 8
static unsigned char ac_bits[] = {
 0x30, 0x28, 0xE4, 0x27, 0x27, 0xE4, 0x28, 0x30 };
