#define dropbox_idle_width 10
#define dropbox_idle_height 10
static unsigned char dropbox_idle_bits[] = {
   0x84, 0x00, 0xce, 0x01, 0xff, 0x03, 0xfe, 0x01, 0xfe, 0x01, 0xff, 0x03,
   0xfe, 0x01, 0xfc, 0x00, 0x78, 0x00, 0x30, 0x00 };
