#define tabbed_width 8
#define tabbed_height 8
static unsigned char tabbed_bits[] = {
   0xff, 0xff, 0xff, 0xff, 0xff, 0xff, 0x00, 0xe7 };
