#define tall_width 8
#define tall_height 8
static unsigned char tall_bits[] = {
   0xef, 0xef, 0x0f, 0xef, 0xef, 0x0f, 0xef, 0xef };
