#define update_width 8
#define update_height 8
static unsigned char update_bits[] = {
   0x18, 0x3c, 0x7e, 0xff, 0x18, 0x18, 0x18, 0x18 };
