#define wifi0_width 8
#define wifi0_height 8
static unsigned char wifi0_bits[] = {
   0x00, 0x00, 0x00, 0x00, 0x00, 0x00, 0x18, 0x18 };
