#define wifi1_width 8
#define wifi1_height 8
static unsigned char wifi1_bits[] = {
   0x00, 0x00, 0x00, 0x00, 0x3c, 0x00, 0x18, 0x18 };
