#define ac_width 12
#define ac_height 12
static unsigned char ac_bits[] = {
   0x80, 0x01, 0x40, 0x01, 0x20, 0x01, 0x10, 0x0f, 0x10, 0x01, 0x1f, 0x01,
   0x1f, 0x01, 0x10, 0x01, 0x10, 0x0f, 0x20, 0x01, 0x40, 0x01, 0x80, 0x01 };
