#define bat_full_width 12
#define bat_full_height 12
static unsigned char bat_full_bits[] = {
   0xf0, 0x00, 0xfc, 0x03, 0x04, 0x02, 0xf4, 0x02, 0xf4, 0x02, 0xf4, 0x02,
   0xf4, 0x02, 0xf4, 0x02, 0xf4, 0x02, 0xf4, 0x02, 0x04, 0x02, 0xfc, 0x03 };
