#define clock_width 12
#define clock_height 12
static unsigned char clock_bits[] = {
   0xf0, 0x00, 0xfc, 0x03, 0xfe, 0x05, 0xfe, 0x06, 0x7f, 0x0f, 0xbf, 0x0f,
   0x1f, 0x08, 0xff, 0x0f, 0xfe, 0x07, 0xfe, 0x07, 0xfc, 0x03, 0xf0, 0x00 };
