#define cpu_width 12
#define cpu_height 12
static unsigned char cpu_bits[] = {
   0x6b, 0x0d, 0x01, 0x08, 0xf8, 0x01, 0xfd, 0x0b, 0xfc, 0x03, 0xfd, 0x0b,
   0xfd, 0x0b, 0xfc, 0x03, 0xfd, 0x0b, 0xf8, 0x01, 0x01, 0x08, 0x6b, 0x0d };
