#define dropbox_idle_width 12
#define dropbox_idle_height 12
static unsigned char dropbox_idle_bits[] = {
   0x0c, 0x03, 0x9e, 0x07, 0xff, 0x0f, 0xfe, 0x07, 0xfc, 0x03, 0xfc, 0x03,
   0xfe, 0x07, 0xff, 0x0f, 0xfe, 0x07, 0xfc, 0x03, 0xf0, 0x00, 0x60, 0x00 };
