#define mem_width 12
#define mem_height 12
static unsigned char mem_bits[] = {
   0xb6, 0x0d, 0x00, 0x00, 0x00, 0x00, 0xfe, 0x0f, 0xfe, 0x0f, 0xfe, 0x0f,
   0xfe, 0x0f, 0xfe, 0x0f, 0xfe, 0x0f, 0x00, 0x00, 0x00, 0x00, 0xb6, 0x0d };
