#define spkr_play_width 12
#define spkr_play_height 12
static unsigned char spkr_play_bits[] = {
   0x38, 0x04, 0x46, 0x08, 0x47, 0x08, 0x47, 0x08, 0x47, 0x08, 0x4f, 0x08,
   0x4f, 0x08, 0x47, 0x08, 0x47, 0x08, 0x47, 0x08, 0x46, 0x08, 0x38, 0x04 };
