#define spkr_mute_width 12
#define spkr_mute_height 12
static unsigned char spkr_mute_bits[] = {
   0x38, 0x00, 0x46, 0x00, 0x47, 0x00, 0x47, 0x00, 0x47, 0x00, 0x4f, 0x00,
   0x4f, 0x00, 0x47, 0x00, 0x47, 0x00, 0x47, 0x00, 0x46, 0x00, 0x38, 0x00 };
