#define wifi3_width 12
#define wifi3_height 12
static unsigned char wifi3_bits[] = {
   0xff, 0x0f, 0xff, 0x0f, 0x00, 0x00, 0xfe, 0x07, 0xfe, 0x07, 0x00, 0x00,
   0xf8, 0x01, 0xf8, 0x01, 0x00, 0x00, 0x60, 0x00, 0x60, 0x00, 0x00, 0x00 };
