#define wifi1_noaddr_width 12
#define wifi1_noaddr_height 12
static unsigned char wifi1_noaddr_bits[] = {
   0x00, 0x00, 0x00, 0x00, 0x00, 0x00, 0x00, 0x00, 0x00, 0x00, 0x00, 0x00,
   0x38, 0x00, 0xb8, 0x08, 0x00, 0x05, 0x20, 0x02, 0x20, 0x05, 0x80, 0x08 };
