#define wifi1_width 12
#define wifi1_height 12
static unsigned char wifi1_bits[] = {
   0x00, 0x00, 0x00, 0x00, 0x00, 0x00, 0x00, 0x00, 0x00, 0x00, 0x00, 0x00,
   0xf8, 0x01, 0xf8, 0x01, 0x00, 0x00, 0x60, 0x00, 0x60, 0x00, 0x00, 0x00 };
