#define wired_width 12
#define wired_height 12
static unsigned char wired_bits[] = {
   0xf0, 0x00, 0xf0, 0x00, 0xfc, 0x03, 0xfc, 0x03, 0xff, 0x0f, 0xff, 0x0f,
   0xff, 0x0f, 0xff, 0x0f, 0xff, 0x0f, 0x01, 0x08, 0x6b, 0x0d, 0xff, 0x0f };
