#define wired_width 12
#define wired_height 12
static unsigned char wired_bits[] = {
   0xf0, 0x00, 0x90, 0x00, 0x9c, 0x03, 0x04, 0x02, 0x07, 0x0e, 0x01, 0x08,
   0x01, 0x08, 0x01, 0x08, 0x69, 0x09, 0x69, 0x09, 0x6b, 0x0d, 0xff, 0x0f };
