#define wifi1_noaddr_width 8
#define wifi1_noaddr_height 8
static unsigned char wifi1_noaddr_bits[] = {
   0x00, 0x00, 0x00, 0x00, 0x30, 0x05, 0x12, 0x15 };
