#define wifi2_noaddr_width 8
#define wifi2_noaddr_height 8
static unsigned char wifi2_noaddr_bits[] = {
   0x00, 0x00, 0x7e, 0x00, 0x0c, 0xa0, 0x48, 0xa8 };
