#define wifi3_noaddr_width 8
#define wifi3_noaddr_height 8
static unsigned char wifi3_noaddr_bits[] = {
   0xff, 0x00, 0x7e, 0x00, 0x30, 0x05, 0x12, 0x15 };
