#define wifi2_width 8
#define wifi2_height 8
static unsigned char wifi2_bits[] = {
   0x00, 0x00, 0x7e, 0x00, 0x3c, 0x00, 0x18, 0x18 };
