#define wired_width 8
#define wired_height 8
static unsigned char wired_bits[] = {
   0x3c, 0x3c, 0xff, 0xff, 0xff, 0xff, 0x81, 0xdb };
